<svg width="509" height="288" viewBox="0 0 509 288" fill="none" xmlns="http://www.w3.org/2000/svg">
<path d="M23.2949 258.45C19.6783 258.45 16.6449 257.283 14.1949 254.95C11.8616 252.617 10.6949 249.467 10.6949 245.5C10.6949 241.65 11.6866 237.217 13.6699 232.2C18.5699 219.367 23.8783 206.767 29.5949 194.4C35.3116 181.917 40.6199 169.317 45.5199 156.6C47.6199 151 49.0783 145.458 49.8949 139.975C50.7116 134.375 51.1199 128.833 51.1199 123.35C51.1199 117.167 50.6533 111.1 49.7199 105.15C48.7866 99.2 47.1533 93.95 44.8199 89.4C39.9199 79.4833 34.6699 70.0917 29.0699 61.225C23.4699 52.3583 18.2199 42.85 13.3199 32.7C11.6866 29.3167 10.4033 26.1666 9.46992 23.25C8.53659 20.3333 8.06992 17.7667 8.06992 15.55C8.06992 10.8833 9.70326 7.26666 12.9699 4.7C16.2366 2.13332 19.7949 0.849982 23.6449 0.849982C25.9783 0.849982 28.2533 1.43331 30.4699 2.59998C32.6866 3.64999 34.7866 5.16666 36.7699 7.14998C39.3366 9.71666 42.4283 14.0333 46.0449 20.1C49.7783 26.05 53.2199 31.8833 56.3699 37.6C56.8366 38.4167 57.3033 39.2333 57.7699 40.05C58.2366 40.75 58.7033 41.5083 59.1699 42.325C59.6366 43.025 60.1033 43.7833 60.5699 44.6C61.1533 45.65 61.7366 46.7583 62.3199 47.925C63.0199 49.0917 63.7199 50.2 64.4199 51.25C65.1199 52.65 65.8199 53.9917 66.5199 55.275C67.3366 56.5583 68.1533 57.9 68.9699 59.3C69.6699 60.4667 70.3699 61.6333 71.0699 62.8C71.7699 63.85 72.4699 65.0167 73.1699 66.3C73.8699 67.35 74.5699 68.4583 75.2699 69.625C75.9699 70.7916 76.6699 71.9 77.3699 72.95C78.3033 74.35 79.1783 75.75 79.9949 77.15C80.9283 78.4333 81.8033 79.7167 82.6199 81C86.4699 86.6 89.9699 90.2167 93.1199 91.85C96.2699 93.4833 99.6533 94.3 103.27 94.3C106.653 94.3 109.803 93.425 112.72 91.675C115.637 89.925 118.67 86.3667 121.82 81C127.653 70.85 133.02 60.35 137.92 49.5C142.82 38.5333 148.07 27.8 153.67 17.3C155.887 13.2166 158.278 10.3 160.845 8.54999C163.412 6.79999 166.095 5.92499 168.895 5.92499C172.978 5.92499 176.303 7.20832 178.87 9.77498C181.437 12.225 182.72 15.6083 182.72 19.925C182.72 23.775 181.67 28.3833 179.57 33.75C175.603 43.6667 171.403 53.2917 166.97 62.625C162.653 71.8417 158.453 81.4667 154.37 91.5C152.62 95.7 151.278 100.075 150.345 104.625C149.528 109.175 149.12 113.55 149.12 117.75C149.12 121.95 149.47 126.208 150.17 130.525C150.87 134.842 151.92 139.217 153.32 143.65C157.403 155.783 162.478 168.908 168.545 183.025C174.612 197.025 179.92 210.967 184.47 224.85C185.403 227.65 186.103 230.333 186.57 232.9C187.153 235.35 187.445 237.8 187.445 240.25C187.445 246.083 185.637 250.692 182.02 254.075C178.52 257.458 174.203 259.15 169.07 259.15C160.67 259.15 153.203 254.017 146.67 243.75C139.553 232.2 132.903 220.533 126.72 208.75C120.653 196.85 114.12 185.417 107.12 174.45C105.02 171.067 102.628 168.617 99.9449 167.1C97.3783 165.467 94.4033 164.65 91.0199 164.65C87.4033 164.65 84.1949 165.583 81.3949 167.45C78.5949 169.317 76.3199 172 74.5699 175.5C68.6199 187.05 63.0783 198.483 57.9449 209.8C52.8116 221 47.2699 232.317 41.3199 243.75C38.7533 248.417 35.9533 252.033 32.9199 254.6C30.0033 257.167 26.7949 258.45 23.2949 258.45ZM164.52 86.25C157.87 83.2167 151.278 80.0667 144.745 76.8C138.212 73.5333 131.853 70.15 125.67 66.65C116.57 61.4 110.62 57.025 107.82 53.525C105.137 50.025 104.553 46.4667 106.07 42.85C107.82 38.65 111.203 36.8416 116.22 37.425C121.353 38.0083 127.77 40.05 135.47 43.55C142.353 46.7 149.295 50.025 156.295 53.525C163.295 57.025 170.353 60.7 177.47 64.55C187.27 69.6833 194.037 74.2333 197.77 78.2C201.62 82.1667 202.67 86.25 200.92 90.45C199.17 94.65 195.437 96.225 189.72 95.175C184.003 94.125 175.603 91.15 164.52 86.25ZM130.22 100.6L138.27 84.15C141.77 85.55 143.987 87.2417 144.92 89.225C145.97 91.2083 145.62 94.0667 143.87 97.8C142.003 101.417 140.02 103.167 137.92 103.05C135.937 102.933 133.37 102.117 130.22 100.6ZM92.0699 131.575C88.5699 131.575 85.6533 130.467 83.3199 128.25C80.9866 125.917 79.8199 122.3 79.8199 117.4C79.8199 113.9 80.8699 111.1 82.9699 109C85.1866 106.9 88.4533 105.85 92.7699 105.85C96.6199 105.85 99.7116 107.017 102.045 109.35C104.378 111.683 105.545 115.008 105.545 119.325C105.545 123.058 104.262 126.033 101.695 128.25C99.1283 130.467 95.9199 131.575 92.0699 131.575ZM57.7699 227.3C51.1199 224.5 44.6449 221.583 38.3449 218.55C32.1616 215.4 26.0366 212.308 19.9699 209.275C12.8533 205.425 7.89492 201.808 5.09492 198.425C2.29492 194.925 1.82826 191.192 3.69492 187.225C5.56159 183.492 8.53659 181.742 12.6199 181.975C16.8199 182.092 22.8866 183.783 30.8199 187.05C37.3533 189.617 43.8283 192.358 50.2449 195.275C56.6616 198.192 62.9033 201.167 68.9699 204.2C79.8199 209.45 87.0533 214.117 90.6699 218.2C94.4033 222.283 95.4533 226.367 93.8199 230.45C91.9533 234.767 88.3949 236.575 83.1449 235.875C78.0116 235.175 69.5533 232.317 57.7699 227.3ZM144.22 204.9C148.07 204.9 151.103 203.792 153.32 201.575C155.653 199.358 156.82 196.85 156.82 194.05C156.82 189.967 155.77 186.817 153.67 184.6C151.687 182.267 149.12 181.1 145.97 181.1C141.42 181.1 138.095 182.092 135.995 184.075C134.012 185.942 133.02 189.267 133.02 194.05C133.02 197.317 133.953 199.942 135.82 201.925C137.803 203.908 140.603 204.9 144.22 204.9ZM125.67 160.1C130.22 160.1 133.778 158.7 136.345 155.9C139.028 153.1 140.37 148.9 140.37 143.3C140.37 139.45 139.203 136.358 136.87 134.025C134.537 131.575 131.62 130.35 128.12 130.35C122.053 130.35 117.62 131.75 114.82 134.55C112.02 137.233 110.62 140.617 110.62 144.7C110.62 149.6 111.962 153.392 114.645 156.075C117.445 158.758 121.12 160.1 125.67 160.1ZM25.9199 244.8C25.4533 244.567 24.8699 244.333 24.1699 244.1C23.5866 243.75 23.0033 243.517 22.4199 243.4C20.6699 242.7 19.6199 241.358 19.2699 239.375C19.0366 237.392 19.6199 235 21.0199 232.2C22.6533 229.167 24.2283 227.067 25.7449 225.9C27.2616 224.733 29.0699 224.617 31.1699 225.55C31.5199 225.667 31.7533 225.783 31.8699 225.9C32.1033 225.9 32.4533 226.017 32.9199 226.25C35.0199 227.067 36.2449 228.525 36.5949 230.625C36.9449 232.725 36.4199 235.467 35.0199 238.85C33.6199 242 32.1616 243.983 30.6449 244.8C29.2449 245.5 27.6699 245.5 25.9199 244.8Z" fill="white"/>
<path d="M196.562 251.5L208 201.812C210.792 189.688 215.042 179.958 220.75 172.625C230.75 159.792 241.938 153.375 254.312 153.375C264.729 153.375 272.042 157.208 276.25 164.875C278.542 169.042 279.688 173.521 279.688 178.313C279.688 180.854 279.375 183.479 278.75 186.188C277.083 193.396 273.021 200.083 266.562 206.25C258.562 213.917 248.479 217.75 236.312 217.75H224.25L224.438 217.125L231.438 207.125H238.812C246.646 207.125 252.688 205.208 256.938 201.375C261.812 196.958 264.917 191.896 266.25 186.188C266.792 183.854 267.062 181.688 267.062 179.688C267.062 175.813 266.062 172.521 264.062 169.812C261.188 165.938 257.125 164 251.875 164C244.208 164 237.042 168.5 230.375 177.5C226.25 183.083 222.958 191.188 220.5 201.812L210.375 245.875L197.188 251.5H196.562ZM296.562 214.625C295.396 219.792 294.812 223.979 294.812 227.188C294.812 228.813 294.958 230.208 295.25 231.375C296.833 236.875 299.958 239.625 304.625 239.625C309.292 239.625 313.667 236.875 317.75 231.375C320.333 227.875 322.5 222.292 324.25 214.625C325.417 209.5 326 205.333 326 202.125C326 200.417 325.833 199 325.5 197.875C324.083 192.375 320.958 189.625 316.125 189.625C311.25 189.625 306.812 192.417 302.812 198C300.396 201.375 298.312 206.917 296.562 214.625ZM284.062 214.688C286.062 205.938 289.188 198.854 293.438 193.438C300.979 183.813 309.375 179 318.625 179C327.875 179 334.021 183.813 337.062 193.438C337.896 196.063 338.312 199.021 338.312 202.313C338.312 205.938 337.792 210.042 336.75 214.625C334.625 223.542 331.5 230.604 327.375 235.813C319.75 245.438 311.333 250.25 302.125 250.25C293.042 250.25 286.896 245.458 283.688 235.875C282.854 233.333 282.438 230.5 282.438 227.375C282.438 223.708 282.979 219.479 284.062 214.688ZM348.938 251.5L360.375 201.813C363.167 189.688 367.417 179.958 373.125 172.625C383.125 159.792 394.312 153.375 406.688 153.375C417.104 153.375 424.417 157.208 428.625 164.875C430.917 169.042 432.062 173.521 432.062 178.313C432.062 180.854 431.75 183.479 431.125 186.188C429.458 193.396 425.396 200.083 418.938 206.25C410.938 213.917 400.854 217.75 388.688 217.75H376.625L376.812 217.125L383.812 207.125H391.188C399.021 207.125 405.062 205.208 409.312 201.375C414.188 196.958 417.292 191.896 418.625 186.188C419.167 183.854 419.438 181.688 419.438 179.688C419.438 175.813 418.438 172.521 416.438 169.813C413.562 165.938 409.5 164 404.25 164C396.583 164 389.417 168.5 382.75 177.5C378.625 183.083 375.333 191.188 372.875 201.813L362.75 245.875L349.562 251.5H348.938Z" fill="white"/>
</svg>
